# xmcd
#
# Track frame offsets: 
#        150
#        10650
#        19907
#        30260
#        40760
#        52542
#        63472
#        72130
#        84255
#        93795
#        105697
#        115997
#        126845
#        141917
#        155847
#        169272
#        181872
#        199715
#        214960
#        226752
#
# Disc length: 3208 seconds
#
# Revision: 6
# Processed by: cddbd v1.5.2PL0 Copyright (c) Steve Scherf et al.
# Submitted via: ExactAudioCopyFreeDBPlugin 1.0
#
DISCID=fd0c8614
DTITLE=Kenny Rogers - Through The Years: A Retrospective [CD1 - The
DTITLE=Vintage Years)
DYEAR=1998
DGENRE=Country
TTITLE0=Kenny Rogers -  The Scholars - The Poor Little Doggie
TTITLE1=Kenny Rogers -  The Scholars - Beloved
TTITLE2=That Crazy Feeling
TTITLE3=We'll Always Have Each Other
TTITLE4=For You Alone
TTITLE5=I've Got A Lot To Learn
TTITLE6=Jole Blon
TTITLE7=Lonely
TTITLE8=Bobby Doyle Three -  Kenny Rogers - Don't Feel Rained On
TTITLE9=Bobby Doyle Three -  Kenny Rogers - Fly Me To The Moon (In Othe
TTITLE9=r Words)
TTITLE10=Bobby Doyle Three -  Kenny Rogers - My Mammy
TTITLE11=Here's That Rainy Day
TTITLE12=Kenny Rogers - The First Edition - Just Dropped In (To See Wha
TTITLE12=t Condition My Condition Was In)
TTITLE13=Kenny Rogers - The First Edition - But You Know I Love You
TTITLE14=Kenny Rogers - The First Edition - Ruby, Don't Take Your Love 
TTITLE14=To Town
TTITLE15=Kenny Rogers - The First Edition - Reuben James
TTITLE16=Kenny Rogers - The First Edition - Something's Burning
TTITLE17=Kenny Rogers - The First Edition - Tell It All Brother
TTITLE18=Kenny Rogers - The First Edition - Someone Who Cares
TTITLE19=Kenny Rogers - The First Edition - Today I Started Loving You 
TTITLE19=Again
EXTD=YEAR: 1998
EXTT0=
EXTT1=
EXTT2=
EXTT3=
EXTT4=
EXTT5=
EXTT6=
EXTT7=
EXTT8=
EXTT9=
EXTT10=
EXTT11=
EXTT12=
EXTT13=
EXTT14=
EXTT15=
EXTT16=
EXTT17=
EXTT18=
EXTT19=
PLAYORDER=
